%TF.GenerationSoftware,KiCad,Pcbnew,8.0.6*%
%TF.CreationDate,2025-04-03T12:19:11-05:00*%
%TF.ProjectId,Controller Combiner,436f6e74-726f-46c6-9c65-7220436f6d62,rev?*%
%TF.SameCoordinates,Original*%
%TF.FileFunction,Drillmap*%
%TF.FilePolarity,Positive*%
%FSLAX45Y45*%
G04 Gerber Fmt 4.5, Leading zero omitted, Abs format (unit mm)*
G04 Created by KiCad (PCBNEW 8.0.6) date 2025-04-03 12:19:11*
%MOMM*%
%LPD*%
G01*
G04 APERTURE LIST*
%ADD10C,0.050000*%
%ADD11C,0.200000*%
G04 APERTURE END LIST*
D10*
X11112500Y-5397500D02*
X15303500Y-5397500D01*
X15303500Y-12128500D01*
X11112500Y-12128500D01*
X11112500Y-5397500D01*
D11*
X11370777Y-12442484D02*
X11370777Y-12242484D01*
X11370777Y-12242484D02*
X11418396Y-12242484D01*
X11418396Y-12242484D02*
X11446967Y-12252008D01*
X11446967Y-12252008D02*
X11466015Y-12271055D01*
X11466015Y-12271055D02*
X11475539Y-12290103D01*
X11475539Y-12290103D02*
X11485062Y-12328198D01*
X11485062Y-12328198D02*
X11485062Y-12356769D01*
X11485062Y-12356769D02*
X11475539Y-12394865D01*
X11475539Y-12394865D02*
X11466015Y-12413912D01*
X11466015Y-12413912D02*
X11446967Y-12432960D01*
X11446967Y-12432960D02*
X11418396Y-12442484D01*
X11418396Y-12442484D02*
X11370777Y-12442484D01*
X11570777Y-12442484D02*
X11570777Y-12309150D01*
X11570777Y-12347246D02*
X11580301Y-12328198D01*
X11580301Y-12328198D02*
X11589824Y-12318674D01*
X11589824Y-12318674D02*
X11608872Y-12309150D01*
X11608872Y-12309150D02*
X11627920Y-12309150D01*
X11694586Y-12442484D02*
X11694586Y-12309150D01*
X11694586Y-12242484D02*
X11685062Y-12252008D01*
X11685062Y-12252008D02*
X11694586Y-12261531D01*
X11694586Y-12261531D02*
X11704110Y-12252008D01*
X11704110Y-12252008D02*
X11694586Y-12242484D01*
X11694586Y-12242484D02*
X11694586Y-12261531D01*
X11818396Y-12442484D02*
X11799348Y-12432960D01*
X11799348Y-12432960D02*
X11789824Y-12413912D01*
X11789824Y-12413912D02*
X11789824Y-12242484D01*
X11923158Y-12442484D02*
X11904110Y-12432960D01*
X11904110Y-12432960D02*
X11894586Y-12413912D01*
X11894586Y-12413912D02*
X11894586Y-12242484D01*
X12151729Y-12442484D02*
X12151729Y-12242484D01*
X12151729Y-12242484D02*
X12218396Y-12385341D01*
X12218396Y-12385341D02*
X12285062Y-12242484D01*
X12285062Y-12242484D02*
X12285062Y-12442484D01*
X12466015Y-12442484D02*
X12466015Y-12337722D01*
X12466015Y-12337722D02*
X12456491Y-12318674D01*
X12456491Y-12318674D02*
X12437443Y-12309150D01*
X12437443Y-12309150D02*
X12399348Y-12309150D01*
X12399348Y-12309150D02*
X12380301Y-12318674D01*
X12466015Y-12432960D02*
X12446967Y-12442484D01*
X12446967Y-12442484D02*
X12399348Y-12442484D01*
X12399348Y-12442484D02*
X12380301Y-12432960D01*
X12380301Y-12432960D02*
X12370777Y-12413912D01*
X12370777Y-12413912D02*
X12370777Y-12394865D01*
X12370777Y-12394865D02*
X12380301Y-12375817D01*
X12380301Y-12375817D02*
X12399348Y-12366293D01*
X12399348Y-12366293D02*
X12446967Y-12366293D01*
X12446967Y-12366293D02*
X12466015Y-12356769D01*
X12561253Y-12309150D02*
X12561253Y-12509150D01*
X12561253Y-12318674D02*
X12580301Y-12309150D01*
X12580301Y-12309150D02*
X12618396Y-12309150D01*
X12618396Y-12309150D02*
X12637443Y-12318674D01*
X12637443Y-12318674D02*
X12646967Y-12328198D01*
X12646967Y-12328198D02*
X12656491Y-12347246D01*
X12656491Y-12347246D02*
X12656491Y-12404388D01*
X12656491Y-12404388D02*
X12646967Y-12423436D01*
X12646967Y-12423436D02*
X12637443Y-12432960D01*
X12637443Y-12432960D02*
X12618396Y-12442484D01*
X12618396Y-12442484D02*
X12580301Y-12442484D01*
X12580301Y-12442484D02*
X12561253Y-12432960D01*
X12742205Y-12423436D02*
X12751729Y-12432960D01*
X12751729Y-12432960D02*
X12742205Y-12442484D01*
X12742205Y-12442484D02*
X12732682Y-12432960D01*
X12732682Y-12432960D02*
X12742205Y-12423436D01*
X12742205Y-12423436D02*
X12742205Y-12442484D01*
X12742205Y-12318674D02*
X12751729Y-12328198D01*
X12751729Y-12328198D02*
X12742205Y-12337722D01*
X12742205Y-12337722D02*
X12732682Y-12328198D01*
X12732682Y-12328198D02*
X12742205Y-12318674D01*
X12742205Y-12318674D02*
X12742205Y-12337722D01*
M02*
