M48
; DRILL file {KiCad 8.0.6} date 2025-04-03T12:19:10-0500
; FORMAT={-:-/ absolute / inch / decimal}
; #@! TF.CreationDate,2025-04-03T12:19:10-05:00
; #@! TF.GenerationSoftware,Kicad,Pcbnew,8.0.6
; #@! TF.FileFunction,Plated,1,2,PTH
FMAT,2
INCH
; #@! TA.AperFunction,Plated,PTH,ViaDrill
T1C0.0118
; #@! TA.AperFunction,Plated,PTH,ComponentDrill
T2C0.0295
; #@! TA.AperFunction,Plated,PTH,ComponentDrill
T3C0.0394
; #@! TA.AperFunction,Plated,PTH,ComponentDrill
T4C0.0400
; #@! TA.AperFunction,Plated,PTH,ComponentDrill
T5C0.0430
; #@! TA.AperFunction,Plated,PTH,ComponentDrill
T6C0.0787
; #@! TA.AperFunction,Plated,PTH,ComponentDrill
T7C0.0984
%
G90
G05
T1
X4.652Y-3.4
X4.8025Y-4.1714
X4.9Y-2.93
X4.9581Y-3.011
X5.0419Y-3.0223
T2
X4.69Y-4.2679
X4.69Y-4.3429
X4.765Y-4.2679
X4.765Y-4.3429
X4.84Y-4.2679
X4.84Y-4.3429
X5.4864Y-4.2679
X5.4864Y-4.3429
X5.5614Y-4.2679
X5.5614Y-4.3429
X5.6364Y-4.2679
X5.6364Y-4.3429
T3
X5.25Y-2.45
X5.25Y-2.55
X5.25Y-2.65
X5.25Y-2.75
X5.25Y-2.85
X5.25Y-2.95
X5.25Y-3.05
X5.25Y-3.15
X5.25Y-3.25
X5.25Y-3.35
X5.25Y-3.45
X5.25Y-3.55
X5.6535Y-4.0909
X5.752Y-4.0929
X5.85Y-2.45
X5.85Y-2.55
X5.85Y-2.65
X5.85Y-2.75
X5.85Y-2.85
X5.85Y-2.95
X5.85Y-3.05
X5.85Y-3.15
X5.85Y-3.25
X5.85Y-3.35
X5.85Y-3.45
X5.85Y-3.55
X5.8504Y-4.0929
T4
X4.5Y-3.7
X4.5Y-4.1
X4.6Y-3.7
X4.6Y-4.1
X4.7Y-3.7
X4.7Y-4.1
X4.8Y-3.7
X4.8Y-4.1
X4.9Y-3.7
X4.9Y-4.1
X5.0Y-3.7
X5.0Y-4.1
T5
X4.5Y-2.45
X4.5Y-2.55
X4.5Y-2.65
X4.5Y-2.75
X4.5Y-2.85
X4.5Y-2.95
X4.5Y-3.05
X4.5Y-3.15
X4.5Y-3.25
X4.5Y-3.35
X4.5Y-3.45
X4.5Y-3.55
X5.1Y-2.45
X5.1Y-2.55
X5.1Y-2.65
X5.1Y-2.75
X5.1Y-2.85
X5.1Y-2.95
X5.1Y-3.05
X5.1Y-3.15
X5.1Y-3.25
X5.1Y-3.35
X5.1Y-3.45
X5.1Y-3.55
T6
X4.5167Y-4.6262
X4.52Y-4.3679
X5.0285Y-4.6262
X5.03Y-4.3679
X5.3132Y-4.6262
X5.3164Y-4.3679
X5.825Y-4.6262
X5.8264Y-4.3679
T7
X5.55Y-2.5
X5.55Y-3.5
M30
