%TF.GenerationSoftware,KiCad,Pcbnew,8.0.6*%
%TF.CreationDate,2025-04-03T12:19:07-05:00*%
%TF.ProjectId,Controller Combiner,436f6e74-726f-46c6-9c65-7220436f6d62,rev?*%
%TF.SameCoordinates,Original*%
%TF.FileFunction,Legend,Top*%
%TF.FilePolarity,Positive*%
%FSLAX46Y46*%
G04 Gerber Fmt 4.6, Leading zero omitted, Abs format (unit mm)*
G04 Created by KiCad (PCBNEW 8.0.6) date 2025-04-03 12:19:07*
%MOMM*%
%LPD*%
G01*
G04 APERTURE LIST*
%ADD10C,0.200000*%
%ADD11C,0.203200*%
%ADD12C,0.150000*%
%ADD13C,0.125000*%
%ADD14C,0.381000*%
%ADD15C,0.100000*%
%ADD16C,0.000000*%
%ADD17C,0.120000*%
%ADD18C,0.127000*%
%ADD19R,1.752600X1.752600*%
%ADD20C,1.752600*%
G04 APERTURE END LIST*
D10*
X131116101Y-105496980D02*
X131068482Y-105544600D01*
X131068482Y-105544600D02*
X130925625Y-105592219D01*
X130925625Y-105592219D02*
X130830387Y-105592219D01*
X130830387Y-105592219D02*
X130687530Y-105544600D01*
X130687530Y-105544600D02*
X130592292Y-105449361D01*
X130592292Y-105449361D02*
X130544673Y-105354123D01*
X130544673Y-105354123D02*
X130497054Y-105163647D01*
X130497054Y-105163647D02*
X130497054Y-105020790D01*
X130497054Y-105020790D02*
X130544673Y-104830314D01*
X130544673Y-104830314D02*
X130592292Y-104735076D01*
X130592292Y-104735076D02*
X130687530Y-104639838D01*
X130687530Y-104639838D02*
X130830387Y-104592219D01*
X130830387Y-104592219D02*
X130925625Y-104592219D01*
X130925625Y-104592219D02*
X131068482Y-104639838D01*
X131068482Y-104639838D02*
X131116101Y-104687457D01*
X131687530Y-105592219D02*
X131592292Y-105544600D01*
X131592292Y-105544600D02*
X131544673Y-105496980D01*
X131544673Y-105496980D02*
X131497054Y-105401742D01*
X131497054Y-105401742D02*
X131497054Y-105116028D01*
X131497054Y-105116028D02*
X131544673Y-105020790D01*
X131544673Y-105020790D02*
X131592292Y-104973171D01*
X131592292Y-104973171D02*
X131687530Y-104925552D01*
X131687530Y-104925552D02*
X131830387Y-104925552D01*
X131830387Y-104925552D02*
X131925625Y-104973171D01*
X131925625Y-104973171D02*
X131973244Y-105020790D01*
X131973244Y-105020790D02*
X132020863Y-105116028D01*
X132020863Y-105116028D02*
X132020863Y-105401742D01*
X132020863Y-105401742D02*
X131973244Y-105496980D01*
X131973244Y-105496980D02*
X131925625Y-105544600D01*
X131925625Y-105544600D02*
X131830387Y-105592219D01*
X131830387Y-105592219D02*
X131687530Y-105592219D01*
X132449435Y-104925552D02*
X132449435Y-105592219D01*
X132449435Y-105020790D02*
X132497054Y-104973171D01*
X132497054Y-104973171D02*
X132592292Y-104925552D01*
X132592292Y-104925552D02*
X132735149Y-104925552D01*
X132735149Y-104925552D02*
X132830387Y-104973171D01*
X132830387Y-104973171D02*
X132878006Y-105068409D01*
X132878006Y-105068409D02*
X132878006Y-105592219D01*
X133211340Y-104925552D02*
X133592292Y-104925552D01*
X133354197Y-104592219D02*
X133354197Y-105449361D01*
X133354197Y-105449361D02*
X133401816Y-105544600D01*
X133401816Y-105544600D02*
X133497054Y-105592219D01*
X133497054Y-105592219D02*
X133592292Y-105592219D01*
X133925626Y-105592219D02*
X133925626Y-104925552D01*
X133925626Y-105116028D02*
X133973245Y-105020790D01*
X133973245Y-105020790D02*
X134020864Y-104973171D01*
X134020864Y-104973171D02*
X134116102Y-104925552D01*
X134116102Y-104925552D02*
X134211340Y-104925552D01*
X134687531Y-105592219D02*
X134592293Y-105544600D01*
X134592293Y-105544600D02*
X134544674Y-105496980D01*
X134544674Y-105496980D02*
X134497055Y-105401742D01*
X134497055Y-105401742D02*
X134497055Y-105116028D01*
X134497055Y-105116028D02*
X134544674Y-105020790D01*
X134544674Y-105020790D02*
X134592293Y-104973171D01*
X134592293Y-104973171D02*
X134687531Y-104925552D01*
X134687531Y-104925552D02*
X134830388Y-104925552D01*
X134830388Y-104925552D02*
X134925626Y-104973171D01*
X134925626Y-104973171D02*
X134973245Y-105020790D01*
X134973245Y-105020790D02*
X135020864Y-105116028D01*
X135020864Y-105116028D02*
X135020864Y-105401742D01*
X135020864Y-105401742D02*
X134973245Y-105496980D01*
X134973245Y-105496980D02*
X134925626Y-105544600D01*
X134925626Y-105544600D02*
X134830388Y-105592219D01*
X134830388Y-105592219D02*
X134687531Y-105592219D01*
X135592293Y-105592219D02*
X135497055Y-105544600D01*
X135497055Y-105544600D02*
X135449436Y-105449361D01*
X135449436Y-105449361D02*
X135449436Y-104592219D01*
X136116103Y-105592219D02*
X136020865Y-105544600D01*
X136020865Y-105544600D02*
X135973246Y-105449361D01*
X135973246Y-105449361D02*
X135973246Y-104592219D01*
X136878008Y-105544600D02*
X136782770Y-105592219D01*
X136782770Y-105592219D02*
X136592294Y-105592219D01*
X136592294Y-105592219D02*
X136497056Y-105544600D01*
X136497056Y-105544600D02*
X136449437Y-105449361D01*
X136449437Y-105449361D02*
X136449437Y-105068409D01*
X136449437Y-105068409D02*
X136497056Y-104973171D01*
X136497056Y-104973171D02*
X136592294Y-104925552D01*
X136592294Y-104925552D02*
X136782770Y-104925552D01*
X136782770Y-104925552D02*
X136878008Y-104973171D01*
X136878008Y-104973171D02*
X136925627Y-105068409D01*
X136925627Y-105068409D02*
X136925627Y-105163647D01*
X136925627Y-105163647D02*
X136449437Y-105258885D01*
X137354199Y-105592219D02*
X137354199Y-104925552D01*
X137354199Y-105116028D02*
X137401818Y-105020790D01*
X137401818Y-105020790D02*
X137449437Y-104973171D01*
X137449437Y-104973171D02*
X137544675Y-104925552D01*
X137544675Y-104925552D02*
X137639913Y-104925552D01*
X138544675Y-105496980D02*
X138497056Y-105544600D01*
X138497056Y-105544600D02*
X138354199Y-105592219D01*
X138354199Y-105592219D02*
X138258961Y-105592219D01*
X138258961Y-105592219D02*
X138116104Y-105544600D01*
X138116104Y-105544600D02*
X138020866Y-105449361D01*
X138020866Y-105449361D02*
X137973247Y-105354123D01*
X137973247Y-105354123D02*
X137925628Y-105163647D01*
X137925628Y-105163647D02*
X137925628Y-105020790D01*
X137925628Y-105020790D02*
X137973247Y-104830314D01*
X137973247Y-104830314D02*
X138020866Y-104735076D01*
X138020866Y-104735076D02*
X138116104Y-104639838D01*
X138116104Y-104639838D02*
X138258961Y-104592219D01*
X138258961Y-104592219D02*
X138354199Y-104592219D01*
X138354199Y-104592219D02*
X138497056Y-104639838D01*
X138497056Y-104639838D02*
X138544675Y-104687457D01*
X139401818Y-104925552D02*
X139401818Y-105592219D01*
X138973247Y-104925552D02*
X138973247Y-105449361D01*
X138973247Y-105449361D02*
X139020866Y-105544600D01*
X139020866Y-105544600D02*
X139116104Y-105592219D01*
X139116104Y-105592219D02*
X139258961Y-105592219D01*
X139258961Y-105592219D02*
X139354199Y-105544600D01*
X139354199Y-105544600D02*
X139401818Y-105496980D01*
X139735152Y-104925552D02*
X140116104Y-104925552D01*
X139878009Y-105592219D02*
X139878009Y-104735076D01*
X139878009Y-104735076D02*
X139925628Y-104639838D01*
X139925628Y-104639838D02*
X140020866Y-104592219D01*
X140020866Y-104592219D02*
X140116104Y-104592219D01*
X140306581Y-104925552D02*
X140687533Y-104925552D01*
X140449438Y-105592219D02*
X140449438Y-104735076D01*
X140449438Y-104735076D02*
X140497057Y-104639838D01*
X140497057Y-104639838D02*
X140592295Y-104592219D01*
X140592295Y-104592219D02*
X140687533Y-104592219D01*
X131671816Y-103007219D02*
X132005149Y-104007219D01*
X132005149Y-104007219D02*
X132338482Y-103007219D01*
X133243244Y-103911980D02*
X133195625Y-103959600D01*
X133195625Y-103959600D02*
X133052768Y-104007219D01*
X133052768Y-104007219D02*
X132957530Y-104007219D01*
X132957530Y-104007219D02*
X132814673Y-103959600D01*
X132814673Y-103959600D02*
X132719435Y-103864361D01*
X132719435Y-103864361D02*
X132671816Y-103769123D01*
X132671816Y-103769123D02*
X132624197Y-103578647D01*
X132624197Y-103578647D02*
X132624197Y-103435790D01*
X132624197Y-103435790D02*
X132671816Y-103245314D01*
X132671816Y-103245314D02*
X132719435Y-103150076D01*
X132719435Y-103150076D02*
X132814673Y-103054838D01*
X132814673Y-103054838D02*
X132957530Y-103007219D01*
X132957530Y-103007219D02*
X133052768Y-103007219D01*
X133052768Y-103007219D02*
X133195625Y-103054838D01*
X133195625Y-103054838D02*
X133243244Y-103102457D01*
X134243244Y-104007219D02*
X133909911Y-103531028D01*
X133671816Y-104007219D02*
X133671816Y-103007219D01*
X133671816Y-103007219D02*
X134052768Y-103007219D01*
X134052768Y-103007219D02*
X134148006Y-103054838D01*
X134148006Y-103054838D02*
X134195625Y-103102457D01*
X134195625Y-103102457D02*
X134243244Y-103197695D01*
X134243244Y-103197695D02*
X134243244Y-103340552D01*
X134243244Y-103340552D02*
X134195625Y-103435790D01*
X134195625Y-103435790D02*
X134148006Y-103483409D01*
X134148006Y-103483409D02*
X134052768Y-103531028D01*
X134052768Y-103531028D02*
X133671816Y-103531028D01*
X135100387Y-103959600D02*
X135005149Y-104007219D01*
X135005149Y-104007219D02*
X134814673Y-104007219D01*
X134814673Y-104007219D02*
X134719435Y-103959600D01*
X134719435Y-103959600D02*
X134671816Y-103911980D01*
X134671816Y-103911980D02*
X134624197Y-103816742D01*
X134624197Y-103816742D02*
X134624197Y-103531028D01*
X134624197Y-103531028D02*
X134671816Y-103435790D01*
X134671816Y-103435790D02*
X134719435Y-103388171D01*
X134719435Y-103388171D02*
X134814673Y-103340552D01*
X134814673Y-103340552D02*
X135005149Y-103340552D01*
X135005149Y-103340552D02*
X135100387Y-103388171D01*
X135528959Y-104007219D02*
X135528959Y-103007219D01*
X135957530Y-104007219D02*
X135957530Y-103483409D01*
X135957530Y-103483409D02*
X135909911Y-103388171D01*
X135909911Y-103388171D02*
X135814673Y-103340552D01*
X135814673Y-103340552D02*
X135671816Y-103340552D01*
X135671816Y-103340552D02*
X135576578Y-103388171D01*
X135576578Y-103388171D02*
X135528959Y-103435790D01*
X136433721Y-104007219D02*
X136433721Y-103340552D01*
X136433721Y-103007219D02*
X136386102Y-103054838D01*
X136386102Y-103054838D02*
X136433721Y-103102457D01*
X136433721Y-103102457D02*
X136481340Y-103054838D01*
X136481340Y-103054838D02*
X136433721Y-103007219D01*
X136433721Y-103007219D02*
X136433721Y-103102457D01*
X136767054Y-103340552D02*
X137148006Y-103340552D01*
X136909911Y-103007219D02*
X136909911Y-103864361D01*
X136909911Y-103864361D02*
X136957530Y-103959600D01*
X136957530Y-103959600D02*
X137052768Y-104007219D01*
X137052768Y-104007219D02*
X137148006Y-104007219D01*
X137862292Y-103959600D02*
X137767054Y-104007219D01*
X137767054Y-104007219D02*
X137576578Y-104007219D01*
X137576578Y-104007219D02*
X137481340Y-103959600D01*
X137481340Y-103959600D02*
X137433721Y-103864361D01*
X137433721Y-103864361D02*
X137433721Y-103483409D01*
X137433721Y-103483409D02*
X137481340Y-103388171D01*
X137481340Y-103388171D02*
X137576578Y-103340552D01*
X137576578Y-103340552D02*
X137767054Y-103340552D01*
X137767054Y-103340552D02*
X137862292Y-103388171D01*
X137862292Y-103388171D02*
X137909911Y-103483409D01*
X137909911Y-103483409D02*
X137909911Y-103578647D01*
X137909911Y-103578647D02*
X137433721Y-103673885D01*
X138767054Y-103959600D02*
X138671816Y-104007219D01*
X138671816Y-104007219D02*
X138481340Y-104007219D01*
X138481340Y-104007219D02*
X138386102Y-103959600D01*
X138386102Y-103959600D02*
X138338483Y-103911980D01*
X138338483Y-103911980D02*
X138290864Y-103816742D01*
X138290864Y-103816742D02*
X138290864Y-103531028D01*
X138290864Y-103531028D02*
X138338483Y-103435790D01*
X138338483Y-103435790D02*
X138386102Y-103388171D01*
X138386102Y-103388171D02*
X138481340Y-103340552D01*
X138481340Y-103340552D02*
X138671816Y-103340552D01*
X138671816Y-103340552D02*
X138767054Y-103388171D01*
X139052769Y-103340552D02*
X139433721Y-103340552D01*
X139195626Y-103007219D02*
X139195626Y-103864361D01*
X139195626Y-103864361D02*
X139243245Y-103959600D01*
X139243245Y-103959600D02*
X139338483Y-104007219D01*
X139338483Y-104007219D02*
X139433721Y-104007219D01*
D11*
X119601959Y-77361142D02*
X120630054Y-77361142D01*
X120630054Y-77361142D02*
X120751006Y-77288571D01*
X120751006Y-77288571D02*
X120811483Y-77216000D01*
X120811483Y-77216000D02*
X120871959Y-77070857D01*
X120871959Y-77070857D02*
X120871959Y-76780571D01*
X120871959Y-76780571D02*
X120811483Y-76635428D01*
X120811483Y-76635428D02*
X120751006Y-76562857D01*
X120751006Y-76562857D02*
X120630054Y-76490285D01*
X120630054Y-76490285D02*
X119601959Y-76490285D01*
X120025292Y-75111429D02*
X120871959Y-75111429D01*
X119541483Y-75474286D02*
X120448625Y-75837143D01*
X120448625Y-75837143D02*
X120448625Y-74893714D01*
D12*
X130166142Y-108605819D02*
X129594714Y-108605819D01*
X129880428Y-108605819D02*
X129880428Y-107605819D01*
X129880428Y-107605819D02*
X129785190Y-107748676D01*
X129785190Y-107748676D02*
X129689952Y-107843914D01*
X129689952Y-107843914D02*
X129594714Y-107891533D01*
X131023285Y-108605819D02*
X131023285Y-108082009D01*
X131023285Y-108082009D02*
X130975666Y-107986771D01*
X130975666Y-107986771D02*
X130880428Y-107939152D01*
X130880428Y-107939152D02*
X130689952Y-107939152D01*
X130689952Y-107939152D02*
X130594714Y-107986771D01*
X131023285Y-108558200D02*
X130928047Y-108605819D01*
X130928047Y-108605819D02*
X130689952Y-108605819D01*
X130689952Y-108605819D02*
X130594714Y-108558200D01*
X130594714Y-108558200D02*
X130547095Y-108462961D01*
X130547095Y-108462961D02*
X130547095Y-108367723D01*
X130547095Y-108367723D02*
X130594714Y-108272485D01*
X130594714Y-108272485D02*
X130689952Y-108224866D01*
X130689952Y-108224866D02*
X130928047Y-108224866D01*
X130928047Y-108224866D02*
X131023285Y-108177247D01*
X132023285Y-108605819D02*
X131451857Y-108605819D01*
X131737571Y-108605819D02*
X131737571Y-107605819D01*
X131737571Y-107605819D02*
X131642333Y-107748676D01*
X131642333Y-107748676D02*
X131547095Y-107843914D01*
X131547095Y-107843914D02*
X131451857Y-107891533D01*
D13*
X143138096Y-100854904D02*
X143076191Y-100823952D01*
X143076191Y-100823952D02*
X142983334Y-100823952D01*
X142983334Y-100823952D02*
X142890477Y-100854904D01*
X142890477Y-100854904D02*
X142828572Y-100916809D01*
X142828572Y-100916809D02*
X142797619Y-100978714D01*
X142797619Y-100978714D02*
X142766667Y-101102523D01*
X142766667Y-101102523D02*
X142766667Y-101195380D01*
X142766667Y-101195380D02*
X142797619Y-101319190D01*
X142797619Y-101319190D02*
X142828572Y-101381095D01*
X142828572Y-101381095D02*
X142890477Y-101443000D01*
X142890477Y-101443000D02*
X142983334Y-101473952D01*
X142983334Y-101473952D02*
X143045238Y-101473952D01*
X143045238Y-101473952D02*
X143138096Y-101443000D01*
X143138096Y-101443000D02*
X143169048Y-101412047D01*
X143169048Y-101412047D02*
X143169048Y-101195380D01*
X143169048Y-101195380D02*
X143045238Y-101195380D01*
X143447619Y-101473952D02*
X143447619Y-100823952D01*
X143447619Y-100823952D02*
X143819048Y-101473952D01*
X143819048Y-101473952D02*
X143819048Y-100823952D01*
X144128571Y-101473952D02*
X144128571Y-100823952D01*
X144128571Y-100823952D02*
X144283333Y-100823952D01*
X144283333Y-100823952D02*
X144376190Y-100854904D01*
X144376190Y-100854904D02*
X144438095Y-100916809D01*
X144438095Y-100916809D02*
X144469048Y-100978714D01*
X144469048Y-100978714D02*
X144500000Y-101102523D01*
X144500000Y-101102523D02*
X144500000Y-101195380D01*
X144500000Y-101195380D02*
X144469048Y-101319190D01*
X144469048Y-101319190D02*
X144438095Y-101381095D01*
X144438095Y-101381095D02*
X144376190Y-101443000D01*
X144376190Y-101443000D02*
X144283333Y-101473952D01*
X144283333Y-101473952D02*
X144128571Y-101473952D01*
X145397619Y-100823952D02*
X145521428Y-100823952D01*
X145521428Y-100823952D02*
X145583333Y-100854904D01*
X145583333Y-100854904D02*
X145645238Y-100916809D01*
X145645238Y-100916809D02*
X145676190Y-101040619D01*
X145676190Y-101040619D02*
X145676190Y-101257285D01*
X145676190Y-101257285D02*
X145645238Y-101381095D01*
X145645238Y-101381095D02*
X145583333Y-101443000D01*
X145583333Y-101443000D02*
X145521428Y-101473952D01*
X145521428Y-101473952D02*
X145397619Y-101473952D01*
X145397619Y-101473952D02*
X145335714Y-101443000D01*
X145335714Y-101443000D02*
X145273809Y-101381095D01*
X145273809Y-101381095D02*
X145242857Y-101257285D01*
X145242857Y-101257285D02*
X145242857Y-101040619D01*
X145242857Y-101040619D02*
X145273809Y-100916809D01*
X145273809Y-100916809D02*
X145335714Y-100854904D01*
X145335714Y-100854904D02*
X145397619Y-100823952D01*
X145954761Y-100823952D02*
X145954761Y-101350142D01*
X145954761Y-101350142D02*
X145985714Y-101412047D01*
X145985714Y-101412047D02*
X146016666Y-101443000D01*
X146016666Y-101443000D02*
X146078571Y-101473952D01*
X146078571Y-101473952D02*
X146202380Y-101473952D01*
X146202380Y-101473952D02*
X146264285Y-101443000D01*
X146264285Y-101443000D02*
X146295238Y-101412047D01*
X146295238Y-101412047D02*
X146326190Y-101350142D01*
X146326190Y-101350142D02*
X146326190Y-100823952D01*
X146542856Y-100823952D02*
X146914285Y-100823952D01*
X146728571Y-101473952D02*
X146728571Y-100823952D01*
X148121427Y-101473952D02*
X148121427Y-100823952D01*
X148430951Y-101473952D02*
X148430951Y-100823952D01*
X148430951Y-100823952D02*
X148802380Y-101473952D01*
X148802380Y-101473952D02*
X148802380Y-100823952D01*
D12*
X150396142Y-108605819D02*
X149824714Y-108605819D01*
X150110428Y-108605819D02*
X150110428Y-107605819D01*
X150110428Y-107605819D02*
X150015190Y-107748676D01*
X150015190Y-107748676D02*
X149919952Y-107843914D01*
X149919952Y-107843914D02*
X149824714Y-107891533D01*
X150824714Y-108605819D02*
X150824714Y-107605819D01*
X150824714Y-107986771D02*
X150919952Y-107939152D01*
X150919952Y-107939152D02*
X151110428Y-107939152D01*
X151110428Y-107939152D02*
X151205666Y-107986771D01*
X151205666Y-107986771D02*
X151253285Y-108034390D01*
X151253285Y-108034390D02*
X151300904Y-108129628D01*
X151300904Y-108129628D02*
X151300904Y-108415342D01*
X151300904Y-108415342D02*
X151253285Y-108510580D01*
X151253285Y-108510580D02*
X151205666Y-108558200D01*
X151205666Y-108558200D02*
X151110428Y-108605819D01*
X151110428Y-108605819D02*
X150919952Y-108605819D01*
X150919952Y-108605819D02*
X150824714Y-108558200D01*
X152253285Y-108605819D02*
X151681857Y-108605819D01*
X151967571Y-108605819D02*
X151967571Y-107605819D01*
X151967571Y-107605819D02*
X151872333Y-107748676D01*
X151872333Y-107748676D02*
X151777095Y-107843914D01*
X151777095Y-107843914D02*
X151681857Y-107891533D01*
X129239819Y-96496904D02*
X130049342Y-96496904D01*
X130049342Y-96496904D02*
X130144580Y-96449285D01*
X130144580Y-96449285D02*
X130192200Y-96401666D01*
X130192200Y-96401666D02*
X130239819Y-96306428D01*
X130239819Y-96306428D02*
X130239819Y-96115952D01*
X130239819Y-96115952D02*
X130192200Y-96020714D01*
X130192200Y-96020714D02*
X130144580Y-95973095D01*
X130144580Y-95973095D02*
X130049342Y-95925476D01*
X130049342Y-95925476D02*
X129239819Y-95925476D01*
X129239819Y-95544523D02*
X129239819Y-94925476D01*
X129239819Y-94925476D02*
X129620771Y-95258809D01*
X129620771Y-95258809D02*
X129620771Y-95115952D01*
X129620771Y-95115952D02*
X129668390Y-95020714D01*
X129668390Y-95020714D02*
X129716009Y-94973095D01*
X129716009Y-94973095D02*
X129811247Y-94925476D01*
X129811247Y-94925476D02*
X130049342Y-94925476D01*
X130049342Y-94925476D02*
X130144580Y-94973095D01*
X130144580Y-94973095D02*
X130192200Y-95020714D01*
X130192200Y-95020714D02*
X130239819Y-95115952D01*
X130239819Y-95115952D02*
X130239819Y-95401666D01*
X130239819Y-95401666D02*
X130192200Y-95496904D01*
X130192200Y-95496904D02*
X130144580Y-95544523D01*
X134493095Y-59144819D02*
X134493095Y-59954342D01*
X134493095Y-59954342D02*
X134540714Y-60049580D01*
X134540714Y-60049580D02*
X134588333Y-60097200D01*
X134588333Y-60097200D02*
X134683571Y-60144819D01*
X134683571Y-60144819D02*
X134874047Y-60144819D01*
X134874047Y-60144819D02*
X134969285Y-60097200D01*
X134969285Y-60097200D02*
X135016904Y-60049580D01*
X135016904Y-60049580D02*
X135064523Y-59954342D01*
X135064523Y-59954342D02*
X135064523Y-59144819D01*
X136064523Y-60144819D02*
X135493095Y-60144819D01*
X135778809Y-60144819D02*
X135778809Y-59144819D01*
X135778809Y-59144819D02*
X135683571Y-59287676D01*
X135683571Y-59287676D02*
X135588333Y-59382914D01*
X135588333Y-59382914D02*
X135493095Y-59430533D01*
D14*
%TO.C,U4*%
X130810000Y-60960000D02*
X113030000Y-60960000D01*
X115570000Y-60960000D02*
X115570000Y-63500000D01*
X113030000Y-60960000D02*
X113030000Y-91440000D01*
X115570000Y-63500000D02*
X113030000Y-63500000D01*
X130810000Y-91440000D02*
X130810000Y-60960000D01*
X113030000Y-91440000D02*
X130810000Y-91440000D01*
D15*
X125890000Y-52750000D02*
X117890000Y-52750000D01*
X117890000Y-54500000D01*
X125890000Y-54500000D01*
X125890000Y-52750000D01*
X130810000Y-54500000D02*
X112970000Y-54500000D01*
X112970000Y-60960000D01*
X130810000Y-60960000D01*
X130810000Y-54500000D01*
D16*
%TO.C,G\u002A\u002A\u002A*%
G36*
X140257188Y-97155000D02*
G01*
X140257188Y-102157188D01*
X135255000Y-102157188D01*
X130252812Y-102157188D01*
X130252812Y-97512242D01*
X131239319Y-97512242D01*
X131242204Y-97547897D01*
X131250290Y-97605253D01*
X131262681Y-97679918D01*
X131278484Y-97767501D01*
X131296806Y-97863610D01*
X131316751Y-97963854D01*
X131337427Y-98063841D01*
X131357940Y-98159180D01*
X131377395Y-98245480D01*
X131394898Y-98318348D01*
X131409556Y-98373394D01*
X131420475Y-98406227D01*
X131421935Y-98409361D01*
X131437601Y-98435001D01*
X131458372Y-98457095D01*
X131487601Y-98477090D01*
X131528640Y-98496428D01*
X131584839Y-98516555D01*
X131659550Y-98538915D01*
X131756126Y-98564952D01*
X131822943Y-98582171D01*
X131914810Y-98605330D01*
X131987221Y-98622445D01*
X132047583Y-98634586D01*
X132103302Y-98642824D01*
X132161787Y-98648229D01*
X132230443Y-98651871D01*
X132316679Y-98654822D01*
X132328024Y-98655164D01*
X132576048Y-98662604D01*
X132690258Y-98947450D01*
X132724530Y-99032446D01*
X132756253Y-99110223D01*
X132783670Y-99176543D01*
X132805024Y-99227168D01*
X132818557Y-99257860D01*
X132821337Y-99263516D01*
X132839096Y-99287437D01*
X132866403Y-99307835D01*
X132906470Y-99325712D01*
X132962511Y-99342073D01*
X133037740Y-99357920D01*
X133135371Y-99374258D01*
X133212440Y-99385626D01*
X133296302Y-99397936D01*
X133370719Y-99409583D01*
X133431313Y-99419823D01*
X133473703Y-99427911D01*
X133493510Y-99433103D01*
X133494203Y-99433530D01*
X133487505Y-99445636D01*
X133464833Y-99477900D01*
X133427448Y-99528678D01*
X133376607Y-99596326D01*
X133313569Y-99679198D01*
X133239593Y-99775651D01*
X133155937Y-99884041D01*
X133063860Y-100002722D01*
X132964621Y-100130050D01*
X132859478Y-100264381D01*
X132810990Y-100326145D01*
X132702737Y-100464092D01*
X132599123Y-100596468D01*
X132501487Y-100721545D01*
X132411167Y-100837594D01*
X132329498Y-100942886D01*
X132257819Y-101035691D01*
X132197468Y-101114280D01*
X132149780Y-101176925D01*
X132116094Y-101221896D01*
X132097747Y-101247464D01*
X132095009Y-101251859D01*
X132078583Y-101305903D01*
X132074335Y-101372345D01*
X132082036Y-101438721D01*
X132099370Y-101488810D01*
X132140105Y-101537620D01*
X132197922Y-101570672D01*
X132265987Y-101586361D01*
X132337465Y-101583083D01*
X132403611Y-101560256D01*
X132422199Y-101548158D01*
X132461492Y-101520786D01*
X132519822Y-101479347D01*
X132595520Y-101425052D01*
X132686919Y-101359108D01*
X132792349Y-101282725D01*
X132910143Y-101197111D01*
X133038633Y-101103475D01*
X133176150Y-101003027D01*
X133321025Y-100896974D01*
X133471591Y-100786526D01*
X133483391Y-100777861D01*
X134511619Y-100022704D01*
X134744608Y-100315302D01*
X134821429Y-100410444D01*
X134889289Y-100491808D01*
X134946445Y-100557409D01*
X134991154Y-100605265D01*
X135021672Y-100633392D01*
X135028263Y-100637965D01*
X135052701Y-100650704D01*
X135079178Y-100659280D01*
X135113700Y-100664490D01*
X135162275Y-100667130D01*
X135230909Y-100667997D01*
X135255000Y-100668031D01*
X135330456Y-100667523D01*
X135384140Y-100665470D01*
X135422058Y-100661074D01*
X135450217Y-100653539D01*
X135474624Y-100642069D01*
X135481737Y-100637965D01*
X135507251Y-100616700D01*
X135547525Y-100575058D01*
X135600814Y-100515025D01*
X135665376Y-100438583D01*
X135739467Y-100347715D01*
X135765391Y-100315302D01*
X135998380Y-100022704D01*
X137026608Y-100777861D01*
X137177544Y-100888597D01*
X137322917Y-100995032D01*
X137461061Y-101095956D01*
X137590306Y-101190160D01*
X137708984Y-101276435D01*
X137815428Y-101353573D01*
X137907968Y-101420365D01*
X137984937Y-101475602D01*
X138044665Y-101518075D01*
X138085486Y-101546575D01*
X138105730Y-101559894D01*
X138106388Y-101560256D01*
X138174180Y-101583403D01*
X138245100Y-101586319D01*
X138312463Y-101570663D01*
X138369588Y-101538095D01*
X138409789Y-101490273D01*
X138412882Y-101484172D01*
X138430747Y-101424853D01*
X138436035Y-101356289D01*
X138428633Y-101290854D01*
X138414990Y-101251859D01*
X138403124Y-101234500D01*
X138375387Y-101197049D01*
X138333115Y-101141235D01*
X138277647Y-101068789D01*
X138210319Y-100981438D01*
X138132469Y-100880912D01*
X138045433Y-100768940D01*
X137950550Y-100647251D01*
X137849157Y-100517575D01*
X137742591Y-100381639D01*
X137699009Y-100326145D01*
X137591638Y-100189220D01*
X137489609Y-100058564D01*
X137394181Y-99935821D01*
X137306612Y-99822637D01*
X137228161Y-99720655D01*
X137160087Y-99631519D01*
X137103649Y-99556875D01*
X137060104Y-99498367D01*
X137030712Y-99457639D01*
X137016731Y-99436336D01*
X137015797Y-99433530D01*
X137032312Y-99428774D01*
X137071985Y-99421024D01*
X137130437Y-99411025D01*
X137203288Y-99399520D01*
X137286159Y-99387254D01*
X137297560Y-99385626D01*
X137411491Y-99368430D01*
X137500929Y-99352378D01*
X137569088Y-99336466D01*
X137619182Y-99319689D01*
X137654424Y-99301045D01*
X137678030Y-99279530D01*
X137688663Y-99263516D01*
X137698666Y-99241753D01*
X137717176Y-99198405D01*
X137742435Y-99137707D01*
X137772687Y-99063898D01*
X137806173Y-98981216D01*
X137819741Y-98947450D01*
X137933952Y-98662604D01*
X138181976Y-98655164D01*
X138270700Y-98652225D01*
X138340997Y-98648716D01*
X138400271Y-98643567D01*
X138455932Y-98635709D01*
X138515385Y-98624069D01*
X138586039Y-98607579D01*
X138675299Y-98585167D01*
X138687057Y-98582171D01*
X138797738Y-98553362D01*
X138884627Y-98529062D01*
X138951074Y-98507826D01*
X139000431Y-98488210D01*
X139036049Y-98468769D01*
X139061280Y-98448060D01*
X139079475Y-98424638D01*
X139088065Y-98409361D01*
X139098191Y-98380971D01*
X139112225Y-98329599D01*
X139129271Y-98259636D01*
X139148434Y-98175473D01*
X139168819Y-98081501D01*
X139189532Y-97982110D01*
X139209678Y-97881691D01*
X139228362Y-97784635D01*
X139244690Y-97695332D01*
X139257766Y-97618174D01*
X139266696Y-97557549D01*
X139270585Y-97517851D01*
X139270681Y-97513267D01*
X139259550Y-97432029D01*
X139227157Y-97368279D01*
X139174857Y-97323355D01*
X139104004Y-97298596D01*
X139048758Y-97293949D01*
X139023877Y-97295241D01*
X138997100Y-97300089D01*
X138964841Y-97309954D01*
X138923509Y-97326297D01*
X138869515Y-97350578D01*
X138799271Y-97384258D01*
X138709188Y-97428797D01*
X138673162Y-97446794D01*
X138367714Y-97599639D01*
X137968487Y-97599639D01*
X137569260Y-97599639D01*
X137162458Y-97367547D01*
X136755656Y-97135456D01*
X136755656Y-96933055D01*
X136755656Y-96730654D01*
X136887239Y-96599619D01*
X137018821Y-96468583D01*
X137229781Y-96509210D01*
X137303744Y-96524225D01*
X137368416Y-96538804D01*
X137418676Y-96551680D01*
X137449401Y-96561587D01*
X137455994Y-96565180D01*
X137468480Y-96581463D01*
X137493331Y-96616764D01*
X137527657Y-96666876D01*
X137568565Y-96727588D01*
X137600181Y-96775064D01*
X137655873Y-96857309D01*
X137701168Y-96918602D01*
X137739746Y-96961948D01*
X137775286Y-96990357D01*
X137811470Y-97006836D01*
X137851978Y-97014392D01*
X137895043Y-97016050D01*
X137938319Y-97014523D01*
X137974984Y-97008116D01*
X138008163Y-96994090D01*
X138040977Y-96969703D01*
X138076549Y-96932216D01*
X138118000Y-96878889D01*
X138168452Y-96806983D01*
X138219118Y-96731652D01*
X138268657Y-96656842D01*
X138314165Y-96587243D01*
X138352890Y-96527133D01*
X138382082Y-96480787D01*
X138398989Y-96452482D01*
X138400466Y-96449728D01*
X138416046Y-96399754D01*
X138422563Y-96335508D01*
X138419998Y-96268862D01*
X138408333Y-96211691D01*
X138400858Y-96193633D01*
X138382627Y-96164696D01*
X138349778Y-96118903D01*
X138304902Y-96059433D01*
X138250588Y-95989463D01*
X138189428Y-95912170D01*
X138124012Y-95830734D01*
X138056930Y-95748331D01*
X137990774Y-95668139D01*
X137928133Y-95593335D01*
X137871598Y-95527099D01*
X137823761Y-95472608D01*
X137787211Y-95433038D01*
X137764539Y-95411569D01*
X137761721Y-95409620D01*
X137730605Y-95396097D01*
X137680316Y-95381712D01*
X137608556Y-95365944D01*
X137513028Y-95348268D01*
X137432028Y-95334684D01*
X137346848Y-95320491D01*
X137271072Y-95307214D01*
X137208968Y-95295652D01*
X137164805Y-95286608D01*
X137142849Y-95280882D01*
X137141391Y-95280120D01*
X137144118Y-95265879D01*
X137155072Y-95227243D01*
X137173627Y-95166159D01*
X137199157Y-95084574D01*
X137231037Y-94984435D01*
X137268639Y-94867688D01*
X137311339Y-94736281D01*
X137358510Y-94592161D01*
X137409527Y-94437274D01*
X137463763Y-94273568D01*
X137499186Y-94167134D01*
X137574456Y-93940743D01*
X137640727Y-93740079D01*
X137698162Y-93564630D01*
X137746922Y-93413886D01*
X137787169Y-93287337D01*
X137819063Y-93184472D01*
X137842767Y-93104781D01*
X137858442Y-93047752D01*
X137866249Y-93012876D01*
X137867254Y-93003423D01*
X137860427Y-92951426D01*
X137843528Y-92898081D01*
X137838667Y-92887683D01*
X137797848Y-92836214D01*
X137738338Y-92797331D01*
X137666996Y-92772698D01*
X137590684Y-92763978D01*
X137516263Y-92772834D01*
X137459166Y-92795682D01*
X137450747Y-92801693D01*
X137440426Y-92811582D01*
X137427502Y-92826472D01*
X137411270Y-92847486D01*
X137391030Y-92875745D01*
X137366079Y-92912372D01*
X137335714Y-92958489D01*
X137299233Y-93015219D01*
X137255934Y-93083685D01*
X137205114Y-93165008D01*
X137146072Y-93260312D01*
X137078104Y-93370718D01*
X137000509Y-93497348D01*
X136912584Y-93641326D01*
X136813626Y-93803774D01*
X136702934Y-93985814D01*
X136579805Y-94188568D01*
X136443536Y-94413160D01*
X136333673Y-94594327D01*
X136210557Y-94797309D01*
X136091346Y-94993704D01*
X135976837Y-95182206D01*
X135867827Y-95361510D01*
X135765112Y-95530312D01*
X135669488Y-95687306D01*
X135581752Y-95831188D01*
X135502699Y-95960652D01*
X135433127Y-96074395D01*
X135373831Y-96171110D01*
X135325609Y-96249493D01*
X135289255Y-96308238D01*
X135265567Y-96346042D01*
X135255341Y-96361599D01*
X135255000Y-96361937D01*
X135247127Y-96350268D01*
X135225658Y-96316132D01*
X135191389Y-96260833D01*
X135145115Y-96185677D01*
X135087635Y-96091968D01*
X135019743Y-95981011D01*
X134942237Y-95854112D01*
X134855912Y-95712574D01*
X134761565Y-95557704D01*
X134659992Y-95390806D01*
X134551990Y-95213185D01*
X134438354Y-95026145D01*
X134319882Y-94830993D01*
X134197369Y-94629032D01*
X134176326Y-94594327D01*
X134029869Y-94352831D01*
X133897071Y-94134003D01*
X133777230Y-93936722D01*
X133669645Y-93759864D01*
X133573612Y-93602308D01*
X133488430Y-93462931D01*
X133413395Y-93340610D01*
X133347807Y-93234224D01*
X133290961Y-93142649D01*
X133242157Y-93064763D01*
X133200691Y-92999445D01*
X133165862Y-92945571D01*
X133136967Y-92902019D01*
X133113303Y-92867668D01*
X133094169Y-92841393D01*
X133078861Y-92822073D01*
X133066678Y-92808586D01*
X133056918Y-92799809D01*
X133050834Y-92795682D01*
X132983497Y-92770433D01*
X132908386Y-92764186D01*
X132832364Y-92775277D01*
X132762290Y-92802045D01*
X132705026Y-92842824D01*
X132671333Y-92887683D01*
X132652844Y-92938182D01*
X132643162Y-92992455D01*
X132642746Y-93003423D01*
X132646584Y-93027146D01*
X132658208Y-93072760D01*
X132677777Y-93140775D01*
X132705455Y-93231702D01*
X132741401Y-93346052D01*
X132785779Y-93484334D01*
X132838749Y-93647060D01*
X132900472Y-93834740D01*
X132971111Y-94047885D01*
X133010813Y-94167134D01*
X133066752Y-94335383D01*
X133119863Y-94496035D01*
X133169522Y-94647144D01*
X133215103Y-94786761D01*
X133255980Y-94912941D01*
X133291526Y-95023736D01*
X133321116Y-95117200D01*
X133344124Y-95191385D01*
X133359924Y-95244344D01*
X133367891Y-95274131D01*
X133368609Y-95280120D01*
X133352352Y-95284971D01*
X133312908Y-95293325D01*
X133254544Y-95304379D01*
X133181529Y-95317334D01*
X133098129Y-95331387D01*
X133077971Y-95334684D01*
X132964699Y-95353979D01*
X132876780Y-95371008D01*
X132811917Y-95386292D01*
X132767813Y-95400354D01*
X132748279Y-95409620D01*
X132728937Y-95426772D01*
X132695159Y-95462709D01*
X132649536Y-95514253D01*
X132594657Y-95578226D01*
X132533113Y-95651451D01*
X132467495Y-95730751D01*
X132400394Y-95812946D01*
X132334400Y-95894860D01*
X132272103Y-95973314D01*
X132216095Y-96045131D01*
X132168965Y-96107133D01*
X132133305Y-96156142D01*
X132111705Y-96188981D01*
X132109141Y-96193633D01*
X132093714Y-96243430D01*
X132087394Y-96307602D01*
X132090163Y-96374278D01*
X132102003Y-96431585D01*
X132109533Y-96449728D01*
X132124035Y-96474475D01*
X132151296Y-96518004D01*
X132188568Y-96576038D01*
X132233098Y-96644300D01*
X132282137Y-96718514D01*
X132290882Y-96731652D01*
X132351121Y-96820967D01*
X132399781Y-96889439D01*
X132439983Y-96939809D01*
X132474849Y-96974817D01*
X132507502Y-96997201D01*
X132541064Y-97009704D01*
X132578657Y-97015063D01*
X132614956Y-97016050D01*
X132662477Y-97013941D01*
X132702372Y-97005609D01*
X132738321Y-96988046D01*
X132774004Y-96958245D01*
X132813101Y-96913199D01*
X132859291Y-96849898D01*
X132909818Y-96775064D01*
X132953656Y-96709360D01*
X132992974Y-96651254D01*
X133024882Y-96604955D01*
X133046486Y-96574671D01*
X133054005Y-96565180D01*
X133072389Y-96557346D01*
X133113003Y-96545875D01*
X133170727Y-96532034D01*
X133240437Y-96517091D01*
X133280218Y-96509210D01*
X133491178Y-96468583D01*
X133622761Y-96599619D01*
X133754343Y-96730654D01*
X133754343Y-96933055D01*
X133754343Y-97135456D01*
X133347541Y-97367547D01*
X132940739Y-97599639D01*
X132541512Y-97599639D01*
X132142285Y-97599639D01*
X131836838Y-97446794D01*
X131738933Y-97398111D01*
X131662105Y-97360809D01*
X131602783Y-97333433D01*
X131557398Y-97314525D01*
X131522378Y-97302628D01*
X131494155Y-97296286D01*
X131469157Y-97294042D01*
X131462266Y-97293949D01*
X131379831Y-97304871D01*
X131315064Y-97336728D01*
X131269357Y-97388155D01*
X131244105Y-97457789D01*
X131239319Y-97512242D01*
X130252812Y-97512242D01*
X130252812Y-97155000D01*
X130252812Y-92152812D01*
X135255000Y-92152812D01*
X140257188Y-92152812D01*
X140257188Y-97155000D01*
G37*
G36*
X137149801Y-94004472D02*
G01*
X137138370Y-94042172D01*
X137119634Y-94101501D01*
X137094359Y-94180100D01*
X137063310Y-94275609D01*
X137027255Y-94385669D01*
X136986959Y-94507921D01*
X136943188Y-94640006D01*
X136908247Y-94744983D01*
X136862146Y-94883654D01*
X136818799Y-95014853D01*
X136778996Y-95136140D01*
X136743523Y-95245073D01*
X136713169Y-95339212D01*
X136688723Y-95416116D01*
X136670973Y-95473343D01*
X136660707Y-95508454D01*
X136658391Y-95518723D01*
X136660094Y-95537061D01*
X136666988Y-95552701D01*
X136681753Y-95566463D01*
X136707070Y-95579166D01*
X136745619Y-95591630D01*
X136800080Y-95604672D01*
X136873133Y-95619113D01*
X136967457Y-95635771D01*
X137085734Y-95655466D01*
X137128751Y-95662490D01*
X137548078Y-95730766D01*
X137780614Y-96021318D01*
X137842466Y-96098789D01*
X137898445Y-96169267D01*
X137946241Y-96229812D01*
X137983544Y-96277488D01*
X138008045Y-96309356D01*
X138017425Y-96322462D01*
X138012229Y-96337663D01*
X137995521Y-96368548D01*
X137971726Y-96408145D01*
X137945266Y-96449488D01*
X137920563Y-96485607D01*
X137902041Y-96509532D01*
X137895043Y-96515297D01*
X137885227Y-96504381D01*
X137863450Y-96474551D01*
X137832835Y-96430235D01*
X137796502Y-96375860D01*
X137792731Y-96370125D01*
X137754457Y-96313953D01*
X137719627Y-96266666D01*
X137691949Y-96233049D01*
X137675134Y-96217888D01*
X137674554Y-96217670D01*
X137645689Y-96210243D01*
X137595158Y-96199023D01*
X137527548Y-96184888D01*
X137447449Y-96168718D01*
X137359449Y-96151391D01*
X137268136Y-96133786D01*
X137178099Y-96116781D01*
X137093926Y-96101256D01*
X137020207Y-96088090D01*
X136961529Y-96078161D01*
X136922481Y-96072348D01*
X136909740Y-96071192D01*
X136892764Y-96072594D01*
X136875111Y-96078355D01*
X136853958Y-96090806D01*
X136826485Y-96112279D01*
X136789870Y-96145106D01*
X136741292Y-96191619D01*
X136677929Y-96254149D01*
X136627581Y-96304386D01*
X136394387Y-96537580D01*
X136394387Y-96940899D01*
X136394716Y-97067092D01*
X136395766Y-97167787D01*
X136397629Y-97245268D01*
X136400399Y-97301820D01*
X136404170Y-97339727D01*
X136409034Y-97361275D01*
X136411756Y-97366441D01*
X136427263Y-97377925D01*
X136464342Y-97401500D01*
X136520362Y-97435605D01*
X136592691Y-97478678D01*
X136678696Y-97529158D01*
X136775745Y-97585483D01*
X136881206Y-97646091D01*
X136931479Y-97674786D01*
X137433834Y-97960908D01*
X137963394Y-97960908D01*
X138492954Y-97960908D01*
X138660952Y-97876693D01*
X138722869Y-97846347D01*
X138775503Y-97821859D01*
X138814130Y-97805328D01*
X138834025Y-97798855D01*
X138835562Y-97799092D01*
X138836260Y-97815460D01*
X138831355Y-97852527D01*
X138822196Y-97904083D01*
X138810130Y-97963921D01*
X138796507Y-98025833D01*
X138782676Y-98083610D01*
X138769984Y-98131044D01*
X138759782Y-98161928D01*
X138754913Y-98170333D01*
X138736927Y-98176602D01*
X138696644Y-98188064D01*
X138638793Y-98203456D01*
X138568107Y-98221511D01*
X138505215Y-98237091D01*
X138270830Y-98294387D01*
X137988327Y-98294387D01*
X137881548Y-98294960D01*
X137800148Y-98296770D01*
X137741739Y-98299953D01*
X137703934Y-98304645D01*
X137684342Y-98310982D01*
X137683235Y-98311756D01*
X137672123Y-98328986D01*
X137652577Y-98368467D01*
X137626218Y-98426543D01*
X137594666Y-98499556D01*
X137559542Y-98583851D01*
X137527519Y-98663071D01*
X137394393Y-98997017D01*
X136904825Y-99066025D01*
X136768984Y-99085300D01*
X136658141Y-99101543D01*
X136569758Y-99115470D01*
X136501296Y-99127794D01*
X136450218Y-99139231D01*
X136413986Y-99150495D01*
X136390061Y-99162301D01*
X136375905Y-99175364D01*
X136368979Y-99190398D01*
X136366747Y-99208117D01*
X136366597Y-99217572D01*
X136366746Y-99225374D01*
X136367998Y-99233510D01*
X136371559Y-99243596D01*
X136378636Y-99257246D01*
X136390437Y-99276076D01*
X136408169Y-99301702D01*
X136433038Y-99335738D01*
X136466251Y-99379801D01*
X136509016Y-99435505D01*
X136562538Y-99504466D01*
X136628026Y-99588300D01*
X136706686Y-99688621D01*
X136799726Y-99807045D01*
X136908351Y-99945188D01*
X136946268Y-99993400D01*
X137030923Y-100101156D01*
X137110136Y-100202208D01*
X137182284Y-100294472D01*
X137245748Y-100375865D01*
X137298908Y-100444305D01*
X137340142Y-100497710D01*
X137367832Y-100533995D01*
X137380357Y-100551080D01*
X137380930Y-100552119D01*
X137370057Y-100545215D01*
X137338718Y-100523235D01*
X137288833Y-100487569D01*
X137222319Y-100439609D01*
X137141097Y-100380745D01*
X137047085Y-100312368D01*
X136942202Y-100235870D01*
X136828368Y-100152641D01*
X136707501Y-100064072D01*
X136698534Y-100057494D01*
X136576120Y-99967824D01*
X136459704Y-99882825D01*
X136351327Y-99803971D01*
X136253029Y-99732731D01*
X136166851Y-99670577D01*
X136094832Y-99618980D01*
X136039013Y-99579413D01*
X136001434Y-99553345D01*
X135984134Y-99542248D01*
X135983968Y-99542170D01*
X135960544Y-99534001D01*
X135937904Y-99533440D01*
X135913438Y-99542665D01*
X135884535Y-99563851D01*
X135848585Y-99599175D01*
X135802975Y-99650813D01*
X135745096Y-99720942D01*
X135695592Y-99782563D01*
X135505109Y-100021119D01*
X135505109Y-99117060D01*
X135505124Y-98931732D01*
X135505063Y-98772254D01*
X135504770Y-98636688D01*
X135504384Y-98572140D01*
X135896336Y-98572140D01*
X135975148Y-98595057D01*
X136132723Y-98640769D01*
X136282106Y-98683899D01*
X136421129Y-98723831D01*
X136547623Y-98759954D01*
X136659419Y-98791653D01*
X136754347Y-98818314D01*
X136830240Y-98839324D01*
X136884928Y-98854069D01*
X136916241Y-98861936D01*
X136922564Y-98863104D01*
X136938166Y-98853932D01*
X136970036Y-98827719D01*
X137015036Y-98787315D01*
X137070027Y-98735569D01*
X137131871Y-98675331D01*
X137157734Y-98649586D01*
X137228835Y-98577924D01*
X137282021Y-98523029D01*
X137319389Y-98482391D01*
X137343035Y-98453494D01*
X137355059Y-98433827D01*
X137357556Y-98420877D01*
X137354373Y-98413980D01*
X137343822Y-98390131D01*
X137345816Y-98378365D01*
X137351054Y-98364888D01*
X137349885Y-98363862D01*
X137335749Y-98360934D01*
X137297194Y-98352551D01*
X137236922Y-98339308D01*
X137157638Y-98321804D01*
X137062043Y-98300637D01*
X136952842Y-98276403D01*
X136832737Y-98249702D01*
X136720317Y-98224670D01*
X136592257Y-98196306D01*
X136472190Y-98170042D01*
X136362904Y-98146463D01*
X136267184Y-98126157D01*
X136187817Y-98109707D01*
X136127588Y-98097701D01*
X136089285Y-98090725D01*
X136076003Y-98089194D01*
X136064375Y-98103627D01*
X136046067Y-98142247D01*
X136022107Y-98202539D01*
X135993525Y-98281991D01*
X135976348Y-98332525D01*
X135896336Y-98572140D01*
X135504384Y-98572140D01*
X135504090Y-98523096D01*
X135502865Y-98429538D01*
X135500939Y-98354076D01*
X135498157Y-98294771D01*
X135494361Y-98249684D01*
X135489395Y-98216876D01*
X135483103Y-98194409D01*
X135475329Y-98180343D01*
X135465916Y-98172740D01*
X135454709Y-98169661D01*
X135441549Y-98169168D01*
X135428687Y-98169332D01*
X135403813Y-98172701D01*
X135382419Y-98185683D01*
X135360804Y-98212588D01*
X135335267Y-98257728D01*
X135311369Y-98306034D01*
X135288013Y-98352544D01*
X135268598Y-98387434D01*
X135256528Y-98404690D01*
X135255000Y-98405547D01*
X135245432Y-98393934D01*
X135227620Y-98363104D01*
X135204971Y-98319071D01*
X135198630Y-98306034D01*
X135167738Y-98244423D01*
X135143536Y-98204274D01*
X135122324Y-98181277D01*
X135100403Y-98171119D01*
X135081313Y-98169332D01*
X135066368Y-98169153D01*
X135053508Y-98169908D01*
X135042577Y-98173535D01*
X135033417Y-98181975D01*
X135025873Y-98197165D01*
X135019788Y-98221044D01*
X135015005Y-98255551D01*
X135011370Y-98302625D01*
X135008724Y-98364205D01*
X135006912Y-98442230D01*
X135005778Y-98538638D01*
X135005165Y-98655368D01*
X135004917Y-98794359D01*
X135004877Y-98957550D01*
X135004890Y-99117060D01*
X135004890Y-100021119D01*
X134814407Y-99782563D01*
X134746327Y-99698115D01*
X134692354Y-99633689D01*
X134649878Y-99587110D01*
X134616287Y-99556200D01*
X134588970Y-99538784D01*
X134565317Y-99532684D01*
X134542717Y-99535725D01*
X134526031Y-99542170D01*
X134509303Y-99552845D01*
X134472241Y-99578531D01*
X134416884Y-99617756D01*
X134345273Y-99669049D01*
X134259448Y-99730939D01*
X134161449Y-99801955D01*
X134053316Y-99880624D01*
X133937089Y-99965477D01*
X133814808Y-100055041D01*
X133811465Y-100057494D01*
X133690164Y-100146395D01*
X133575757Y-100230057D01*
X133470162Y-100307089D01*
X133375299Y-100376100D01*
X133293087Y-100435699D01*
X133225445Y-100484495D01*
X133174291Y-100521097D01*
X133141546Y-100544114D01*
X133129128Y-100552155D01*
X133129070Y-100552119D01*
X133137402Y-100540347D01*
X133161320Y-100508835D01*
X133199202Y-100459665D01*
X133249428Y-100394919D01*
X133310379Y-100316681D01*
X133380433Y-100227033D01*
X133457971Y-100128057D01*
X133541373Y-100021838D01*
X133563732Y-99993400D01*
X133677555Y-99848663D01*
X133775408Y-99724157D01*
X133858500Y-99618267D01*
X133928036Y-99529377D01*
X133985225Y-99455872D01*
X134031272Y-99396137D01*
X134067385Y-99348555D01*
X134094770Y-99311513D01*
X134114636Y-99283394D01*
X134128188Y-99262582D01*
X134136633Y-99247464D01*
X134141179Y-99236422D01*
X134143033Y-99227843D01*
X134143401Y-99220109D01*
X134143402Y-99217572D01*
X134142498Y-99198344D01*
X134138094Y-99182137D01*
X134127651Y-99168238D01*
X134108631Y-99155930D01*
X134078496Y-99144501D01*
X134034708Y-99133234D01*
X133974729Y-99121415D01*
X133896021Y-99108330D01*
X133796045Y-99093264D01*
X133672263Y-99075503D01*
X133605174Y-99066025D01*
X133115606Y-98997017D01*
X132982480Y-98663071D01*
X132945574Y-98571965D01*
X132910837Y-98488978D01*
X132882387Y-98423507D01*
X133152286Y-98423507D01*
X133156879Y-98437840D01*
X133171500Y-98459493D01*
X133198249Y-98490979D01*
X133239222Y-98534810D01*
X133296516Y-98593499D01*
X133352265Y-98649586D01*
X133415576Y-98712369D01*
X133472773Y-98767899D01*
X133520821Y-98813326D01*
X133556684Y-98845802D01*
X133577329Y-98862474D01*
X133580675Y-98864081D01*
X133597108Y-98860395D01*
X133636900Y-98849955D01*
X133696704Y-98833684D01*
X133773172Y-98812505D01*
X133862954Y-98787342D01*
X133962703Y-98759120D01*
X134011587Y-98745200D01*
X134119570Y-98714364D01*
X134223331Y-98684683D01*
X134318645Y-98657371D01*
X134401284Y-98633639D01*
X134467024Y-98614700D01*
X134511639Y-98601767D01*
X134520898Y-98599055D01*
X134613547Y-98571790D01*
X134533593Y-98332350D01*
X134502936Y-98243545D01*
X134476337Y-98172525D01*
X134454827Y-98121804D01*
X134439435Y-98093898D01*
X134433997Y-98089194D01*
X134416784Y-98091375D01*
X134375249Y-98099090D01*
X134312179Y-98111752D01*
X134230359Y-98128776D01*
X134132576Y-98149575D01*
X134021616Y-98173563D01*
X133900265Y-98200156D01*
X133789682Y-98224670D01*
X133662226Y-98253047D01*
X133543297Y-98279481D01*
X133435600Y-98303375D01*
X133341837Y-98324131D01*
X133264712Y-98341150D01*
X133206927Y-98353836D01*
X133171185Y-98361591D01*
X133160115Y-98363862D01*
X133161227Y-98373021D01*
X133164183Y-98378365D01*
X133163890Y-98399655D01*
X133155626Y-98413980D01*
X133152286Y-98423507D01*
X132882387Y-98423507D01*
X132879891Y-98417764D01*
X132854355Y-98361982D01*
X132835851Y-98325286D01*
X132826764Y-98311756D01*
X132808963Y-98305237D01*
X132773200Y-98300377D01*
X132717087Y-98297040D01*
X132638237Y-98295091D01*
X132534259Y-98294393D01*
X132521672Y-98294387D01*
X132239170Y-98294387D01*
X132004784Y-98237091D01*
X131927213Y-98217813D01*
X131858675Y-98200181D01*
X131803904Y-98185462D01*
X131767628Y-98174920D01*
X131755086Y-98170333D01*
X131747376Y-98154422D01*
X131736249Y-98117695D01*
X131723056Y-98066358D01*
X131709145Y-98006621D01*
X131695864Y-97944690D01*
X131684563Y-97886775D01*
X131676589Y-97839084D01*
X131673292Y-97807824D01*
X131674438Y-97799092D01*
X131688564Y-97802541D01*
X131722676Y-97816605D01*
X131772050Y-97839185D01*
X131831963Y-97868180D01*
X131849048Y-97876693D01*
X132017045Y-97960908D01*
X132546605Y-97960908D01*
X133076165Y-97960908D01*
X133578520Y-97674786D01*
X133686949Y-97612741D01*
X133788168Y-97554265D01*
X133879547Y-97500920D01*
X133958451Y-97454269D01*
X134022250Y-97415872D01*
X134068311Y-97387292D01*
X134094002Y-97370089D01*
X134098244Y-97366441D01*
X134103660Y-97351868D01*
X134107938Y-97322020D01*
X134111172Y-97274614D01*
X134113455Y-97207365D01*
X134114880Y-97117988D01*
X134115540Y-97004198D01*
X134115612Y-96940899D01*
X134115612Y-96537580D01*
X133882419Y-96304386D01*
X133807955Y-96230217D01*
X133750106Y-96173578D01*
X133706051Y-96132137D01*
X133672969Y-96103563D01*
X133648037Y-96085525D01*
X133628434Y-96075689D01*
X133611340Y-96071725D01*
X133600259Y-96071192D01*
X133576566Y-96073831D01*
X133530235Y-96081162D01*
X133465856Y-96092306D01*
X133388016Y-96106384D01*
X133301305Y-96122518D01*
X133210310Y-96139829D01*
X133119621Y-96157437D01*
X133033825Y-96174465D01*
X132957511Y-96190033D01*
X132895269Y-96203263D01*
X132851685Y-96213275D01*
X132835446Y-96217670D01*
X132819396Y-96231578D01*
X132792263Y-96264227D01*
X132757756Y-96310832D01*
X132719583Y-96366608D01*
X132717268Y-96370125D01*
X132680541Y-96425251D01*
X132649224Y-96470756D01*
X132626438Y-96502210D01*
X132615304Y-96515186D01*
X132614956Y-96515297D01*
X132603560Y-96504354D01*
X132582824Y-96476238D01*
X132557169Y-96437918D01*
X132531018Y-96396363D01*
X132508794Y-96358541D01*
X132494921Y-96331422D01*
X132492574Y-96322462D01*
X132502070Y-96309204D01*
X132526662Y-96277221D01*
X132564043Y-96229451D01*
X132611900Y-96168830D01*
X132667925Y-96098297D01*
X132729385Y-96021318D01*
X132961921Y-95730766D01*
X133381249Y-95662490D01*
X133507695Y-95641659D01*
X133609337Y-95624125D01*
X133688856Y-95609069D01*
X133748932Y-95595671D01*
X133792245Y-95583112D01*
X133821475Y-95570574D01*
X133839302Y-95557237D01*
X133848406Y-95542282D01*
X133851467Y-95524890D01*
X133851608Y-95518723D01*
X133847315Y-95501335D01*
X133834961Y-95460045D01*
X133815336Y-95397294D01*
X133789226Y-95315521D01*
X133757420Y-95217169D01*
X133720707Y-95104679D01*
X133679874Y-94980490D01*
X133635710Y-94847044D01*
X133601752Y-94744983D01*
X133555862Y-94607028D01*
X133512868Y-94477123D01*
X133473535Y-94357625D01*
X133438630Y-94250895D01*
X133408918Y-94159291D01*
X133385166Y-94085172D01*
X133368140Y-94030898D01*
X133358607Y-93998829D01*
X133356839Y-93990760D01*
X133364522Y-94001776D01*
X133385723Y-94035137D01*
X133419568Y-94089415D01*
X133465183Y-94163182D01*
X133521694Y-94255010D01*
X133588227Y-94363472D01*
X133663908Y-94487138D01*
X133747863Y-94624582D01*
X133839219Y-94774374D01*
X133937100Y-94935089D01*
X134040634Y-95105296D01*
X134148946Y-95283569D01*
X134249242Y-95448827D01*
X134361734Y-95634089D01*
X134470695Y-95813173D01*
X134575210Y-95984595D01*
X134674364Y-96146869D01*
X134767241Y-96298508D01*
X134852927Y-96438028D01*
X134930506Y-96563943D01*
X134999064Y-96674766D01*
X135057684Y-96769013D01*
X135105453Y-96845197D01*
X135141454Y-96901833D01*
X135164773Y-96937434D01*
X135173940Y-96950049D01*
X135220966Y-96982164D01*
X135270577Y-96987224D01*
X135319011Y-96965229D01*
X135336060Y-96950049D01*
X135347876Y-96933499D01*
X135373153Y-96894651D01*
X135410976Y-96834993D01*
X135460428Y-96756008D01*
X135520595Y-96659184D01*
X135590563Y-96546005D01*
X135669415Y-96417958D01*
X135756236Y-96276527D01*
X135850112Y-96123200D01*
X135950127Y-95959461D01*
X136055366Y-95786797D01*
X136164915Y-95606693D01*
X136260757Y-95448827D01*
X136372605Y-95264546D01*
X136480457Y-95087051D01*
X136583440Y-94917772D01*
X136680678Y-94758135D01*
X136771299Y-94609570D01*
X136854428Y-94473504D01*
X136929191Y-94351364D01*
X136994715Y-94244579D01*
X137050125Y-94154578D01*
X137094547Y-94082787D01*
X137127107Y-94030634D01*
X137146932Y-93999549D01*
X137153160Y-93990760D01*
X137149801Y-94004472D01*
G37*
D17*
%TO.C,1a1*%
X114680000Y-107262000D02*
X114680000Y-109155000D01*
X114680000Y-107262000D02*
X127888000Y-107262000D01*
X114680000Y-112850000D02*
X114680000Y-115390000D01*
X117601000Y-109040000D02*
X117601000Y-107770000D01*
X127888000Y-107262000D02*
X127888000Y-109155000D01*
X127888000Y-112850000D02*
X127888000Y-115390000D01*
%TO.C,U2*%
D15*
X141550000Y-92460000D02*
X150550000Y-92460000D01*
X150550000Y-105460000D01*
X141550000Y-105460000D01*
X141550000Y-92460000D01*
D17*
%TO.C,1b1*%
X134910000Y-107262000D02*
X134910000Y-109155000D01*
X134910000Y-107262000D02*
X148118000Y-107262000D01*
X134910000Y-112850000D02*
X134910000Y-115390000D01*
X137831000Y-109040000D02*
X137831000Y-107770000D01*
X148118000Y-107262000D02*
X148118000Y-109155000D01*
X148118000Y-112850000D02*
X148118000Y-115390000D01*
D18*
%TO.C,U3*%
X112625000Y-92395000D02*
X128675000Y-92395000D01*
X112625000Y-105725000D02*
X112625000Y-92395000D01*
X128675000Y-92395000D02*
X128675000Y-105725000D01*
X128675000Y-105725000D02*
X112625000Y-105725000D01*
%TO.C,U1*%
X132080000Y-60960000D02*
X149860000Y-60960000D01*
X132080000Y-91440000D02*
X132080000Y-60960000D01*
X149860000Y-60960000D02*
X149860000Y-91440000D01*
X149860000Y-91440000D02*
X132080000Y-91440000D01*
D10*
X131570000Y-62230000D02*
G75*
G02*
X131370000Y-62230000I-100000J0D01*
G01*
X131370000Y-62230000D02*
G75*
G02*
X131570000Y-62230000I100000J0D01*
G01*
%TD*%
D19*
%TO.C,U4*%
X114300000Y-62230000D03*
D20*
X114300000Y-64770000D03*
X114300000Y-67310000D03*
X114300000Y-69850000D03*
X114300000Y-72390000D03*
X114300000Y-74930000D03*
X114300000Y-77470000D03*
X114300000Y-80010000D03*
X114300000Y-82550000D03*
X114300000Y-85090000D03*
X114300000Y-87630000D03*
X114300000Y-90170000D03*
X129540000Y-90170000D03*
X129540000Y-87630000D03*
X129540000Y-85090000D03*
X129540000Y-82550000D03*
X129540000Y-80010000D03*
X129540000Y-77470000D03*
X129540000Y-74930000D03*
X129540000Y-72390000D03*
X129540000Y-69850000D03*
X129540000Y-67310000D03*
X129540000Y-64770000D03*
X129540000Y-62230000D03*
%TD*%
M02*
