%TF.GenerationSoftware,KiCad,Pcbnew,8.0.6*%
%TF.CreationDate,2025-04-03T12:19:07-05:00*%
%TF.ProjectId,Controller Combiner,436f6e74-726f-46c6-9c65-7220436f6d62,rev?*%
%TF.SameCoordinates,Original*%
%TF.FileFunction,Copper,L2,Bot*%
%TF.FilePolarity,Positive*%
%FSLAX46Y46*%
G04 Gerber Fmt 4.6, Leading zero omitted, Abs format (unit mm)*
G04 Created by KiCad (PCBNEW 8.0.6) date 2025-04-03 12:19:07*
%MOMM*%
%LPD*%
G01*
G04 APERTURE LIST*
%TA.AperFunction,ComponentPad*%
%ADD10R,1.752600X1.752600*%
%TD*%
%TA.AperFunction,ComponentPad*%
%ADD11C,1.752600*%
%TD*%
%TA.AperFunction,ComponentPad*%
%ADD12R,1.270000X1.270000*%
%TD*%
%TA.AperFunction,ComponentPad*%
%ADD13C,1.270000*%
%TD*%
%TA.AperFunction,ComponentPad*%
%ADD14C,3.000000*%
%TD*%
%TA.AperFunction,ComponentPad*%
%ADD15R,1.500000X2.300000*%
%TD*%
%TA.AperFunction,ComponentPad*%
%ADD16O,1.500000X2.300000*%
%TD*%
%TA.AperFunction,ComponentPad*%
%ADD17C,1.524000*%
%TD*%
%TA.AperFunction,ComponentPad*%
%ADD18R,1.524000X1.524000*%
%TD*%
%TA.AperFunction,ComponentPad*%
%ADD19R,1.508000X1.508000*%
%TD*%
%TA.AperFunction,ComponentPad*%
%ADD20C,1.508000*%
%TD*%
%TA.AperFunction,ComponentPad*%
%ADD21C,3.516000*%
%TD*%
%TA.AperFunction,ViaPad*%
%ADD22C,0.600000*%
%TD*%
%TA.AperFunction,Conductor*%
%ADD23C,0.200000*%
%TD*%
G04 APERTURE END LIST*
D10*
%TO.P,U4,1,TX*%
%TO.N,unconnected-(U4-TX-Pad1)*%
X114300000Y-62230000D03*
D11*
%TO.P,U4,2,RX*%
%TO.N,unconnected-(U4-RX-Pad2)*%
X114300000Y-64770000D03*
%TO.P,U4,3,GND*%
%TO.N,Net-(1a1-GND)*%
X114300000Y-67310000D03*
%TO.P,U4,4,GND*%
%TO.N,unconnected-(U4-GND-Pad4)*%
X114300000Y-69850000D03*
%TO.P,U4,5,SDA*%
%TO.N,Net-(U4-SDA)*%
X114300000Y-72390000D03*
%TO.P,U4,6,SCL*%
%TO.N,Net-(U4-SCL)*%
X114300000Y-74930000D03*
%TO.P,U4,7,D4*%
%TO.N,unconnected-(U4-D4-Pad7)*%
X114300000Y-77470000D03*
%TO.P,U4,8,C6*%
%TO.N,unconnected-(U4-C6-Pad8)*%
X114300000Y-80010000D03*
%TO.P,U4,9,D7*%
%TO.N,unconnected-(U4-D7-Pad9)*%
X114300000Y-82550000D03*
%TO.P,U4,10,E6*%
%TO.N,unconnected-(U4-E6-Pad10)*%
X114300000Y-85090000D03*
%TO.P,U4,11,B4*%
%TO.N,unconnected-(U4-B4-Pad11)*%
X114300000Y-87630000D03*
%TO.P,U4,12,B5*%
%TO.N,unconnected-(U4-B5-Pad12)*%
X114300000Y-90170000D03*
%TO.P,U4,13,B6*%
%TO.N,unconnected-(U4-B6-Pad13)*%
X129540000Y-90170000D03*
%TO.P,U4,14,B2*%
%TO.N,unconnected-(U4-B2-Pad14)*%
X129540000Y-87630000D03*
%TO.P,U4,15,B3*%
%TO.N,unconnected-(U4-B3-Pad15)*%
X129540000Y-85090000D03*
%TO.P,U4,16,B1*%
%TO.N,unconnected-(U4-B1-Pad16)*%
X129540000Y-82550000D03*
%TO.P,U4,17,F7*%
%TO.N,unconnected-(U4-F7-Pad17)*%
X129540000Y-80010000D03*
%TO.P,U4,18,F6*%
%TO.N,unconnected-(U4-F6-Pad18)*%
X129540000Y-77470000D03*
%TO.P,U4,19,F5*%
%TO.N,unconnected-(U4-F5-Pad19)*%
X129540000Y-74930000D03*
%TO.P,U4,20,F4*%
%TO.N,unconnected-(U4-F4-Pad20)*%
X129540000Y-72390000D03*
%TO.P,U4,21,VCC*%
%TO.N,Net-(U2-IN)*%
X129540000Y-69850000D03*
%TO.P,U4,22,RST*%
%TO.N,unconnected-(U4-RST-Pad22)*%
X129540000Y-67310000D03*
%TO.P,U4,23,GND*%
%TO.N,Net-(U2-GND)*%
X129540000Y-64770000D03*
%TO.P,U4,24,RAW*%
%TO.N,unconnected-(U4-RAW-Pad24)*%
X129540000Y-62230000D03*
%TD*%
D12*
%TO.P,1a1,1,3.3v*%
%TO.N,Net-(U1-VIN)*%
X119125000Y-108405000D03*
D13*
%TO.P,1a1,2,SCL*%
%TO.N,Net-(1a1-SCL)*%
X119125000Y-110310000D03*
%TO.P,1a1,3,3.3v*%
%TO.N,Net-(U1-VIN)*%
X121030000Y-108405000D03*
%TO.P,1a1,4*%
%TO.N,N/C*%
X121030000Y-110310000D03*
%TO.P,1a1,5,SDA*%
%TO.N,Net-(1a1-SDA)*%
X122935000Y-108405000D03*
%TO.P,1a1,6,GND*%
%TO.N,Net-(1a1-GND)*%
X122935000Y-110310000D03*
D14*
%TO.P,1a1,SH*%
%TO.N,N/C*%
X114725000Y-117505000D03*
X114807000Y-110945000D03*
X127725000Y-117505000D03*
X127761000Y-110945000D03*
%TD*%
D15*
%TO.P,U2,1,IN*%
%TO.N,Net-(U2-IN)*%
X148600000Y-103960000D03*
D16*
%TO.P,U2,2,OUT*%
%TO.N,Net-(U1-VIN)*%
X146100000Y-103960000D03*
%TO.P,U2,3,GND*%
%TO.N,Net-(U2-GND)*%
X143600000Y-103910000D03*
%TD*%
D12*
%TO.P,1b1,1,3.3v*%
%TO.N,Net-(U1-VIN)*%
X139355000Y-108405000D03*
D13*
%TO.P,1b1,2,SCL*%
%TO.N,Net-(1b1-SCL)*%
X139355000Y-110310000D03*
%TO.P,1b1,3,3.3v*%
%TO.N,Net-(U1-VIN)*%
X141260000Y-108405000D03*
%TO.P,1b1,4*%
%TO.N,N/C*%
X141260000Y-110310000D03*
%TO.P,1b1,5,SDA*%
%TO.N,Net-(1b1-SDA)*%
X143165000Y-108405000D03*
%TO.P,1b1,6,GND*%
%TO.N,Net-(1a1-GND)*%
X143165000Y-110310000D03*
D14*
%TO.P,1b1,SH*%
%TO.N,N/C*%
X134955000Y-117505000D03*
X135037000Y-110945000D03*
X147955000Y-117505000D03*
X147991000Y-110945000D03*
%TD*%
D17*
%TO.P,U3,GND_1,GND*%
%TO.N,Net-(1a1-GND)*%
X119380000Y-104140000D03*
%TO.P,U3,GND_2,GND*%
X119380000Y-93980000D03*
%TO.P,U3,HV,HV*%
%TO.N,Net-(U2-IN)*%
X121920000Y-104140000D03*
D18*
%TO.P,U3,HV1,HV1*%
%TO.N,Net-(U4-SDA)*%
X127000000Y-104140000D03*
D17*
%TO.P,U3,HV2,HV2*%
%TO.N,Net-(U4-SCL)*%
X124460000Y-104140000D03*
%TO.P,U3,HV3,HV3*%
%TO.N,unconnected-(U3-PadHV3)*%
X116840000Y-104140000D03*
%TO.P,U3,HV4,HV4*%
%TO.N,unconnected-(U3-PadHV4)*%
X114300000Y-104140000D03*
%TO.P,U3,LV,LV*%
%TO.N,Net-(U1-VIN)*%
X121920000Y-93980000D03*
D18*
%TO.P,U3,LV1,LV1*%
%TO.N,Net-(U1-SDA)*%
X127000000Y-93980000D03*
D17*
%TO.P,U3,LV2,LV2*%
%TO.N,Net-(U1-SCL)*%
X124460000Y-93980000D03*
%TO.P,U3,LV3,LV3*%
%TO.N,unconnected-(U3-PadLV3)*%
X116840000Y-93980000D03*
%TO.P,U3,LV4,LV4*%
%TO.N,unconnected-(U3-PadLV4)*%
X114300000Y-93980000D03*
%TD*%
D19*
%TO.P,U1,1,VIN*%
%TO.N,Net-(U1-VIN)*%
X133350000Y-62230000D03*
D20*
%TO.P,U1,2,GND*%
%TO.N,Net-(1a1-GND)*%
X133350000Y-64770000D03*
%TO.P,U1,3,SDA*%
%TO.N,Net-(U1-SDA)*%
X133350000Y-67310000D03*
%TO.P,U1,4,SCL*%
%TO.N,Net-(U1-SCL)*%
X133350000Y-69850000D03*
%TO.P,U1,5,RST*%
%TO.N,unconnected-(U1-RST-Pad5)*%
X133350000Y-72390000D03*
%TO.P,U1,6,A0*%
%TO.N,unconnected-(U1-A0-Pad6)*%
X133350000Y-74930000D03*
%TO.P,U1,7,A1*%
%TO.N,unconnected-(U1-A1-Pad7)*%
X133350000Y-77470000D03*
%TO.P,U1,8,A2*%
%TO.N,unconnected-(U1-A2-Pad8)*%
X133350000Y-80010000D03*
%TO.P,U1,9,SDA0*%
%TO.N,Net-(1a1-SDA)*%
X133350000Y-82550000D03*
%TO.P,U1,10,SCL0*%
%TO.N,Net-(1a1-SCL)*%
X133350000Y-85090000D03*
%TO.P,U1,11,SDA1*%
%TO.N,Net-(1b1-SDA)*%
X133350000Y-87630000D03*
%TO.P,U1,12,SCL1*%
%TO.N,Net-(1b1-SCL)*%
X133350000Y-90170000D03*
%TO.P,U1,13,SDA2*%
%TO.N,unconnected-(U1-SDA2-Pad13)*%
X148590000Y-90170000D03*
%TO.P,U1,14,SCL2*%
%TO.N,unconnected-(U1-SCL2-Pad14)*%
X148590000Y-87630000D03*
%TO.P,U1,15,SDA3*%
%TO.N,unconnected-(U1-SDA3-Pad15)*%
X148590000Y-85090000D03*
%TO.P,U1,16,SCL3*%
%TO.N,unconnected-(U1-SCL3-Pad16)*%
X148590000Y-82550000D03*
%TO.P,U1,17,SDA4*%
%TO.N,unconnected-(U1-SDA4-Pad17)*%
X148590000Y-80010000D03*
%TO.P,U1,18,SCL4*%
%TO.N,unconnected-(U1-SCL4-Pad18)*%
X148590000Y-77470000D03*
%TO.P,U1,19,SDA5*%
%TO.N,unconnected-(U1-SDA5-Pad19)*%
X148590000Y-74930000D03*
%TO.P,U1,20,SCL5*%
%TO.N,unconnected-(U1-SCL5-Pad20)*%
X148590000Y-72390000D03*
%TO.P,U1,21,SDA6*%
%TO.N,unconnected-(U1-SDA6-Pad21)*%
X148590000Y-69850000D03*
%TO.P,U1,22,SCL6*%
%TO.N,unconnected-(U1-SCL6-Pad22)*%
X148590000Y-67310000D03*
%TO.P,U1,23,SDA7*%
%TO.N,unconnected-(U1-SDA7-Pad23)*%
X148590000Y-64770000D03*
%TO.P,U1,24,SCL7*%
%TO.N,unconnected-(U1-SCL7-Pad24)*%
X148590000Y-62230000D03*
D21*
%TO.P,U1,P1*%
%TO.N,N/C*%
X140970000Y-63500000D03*
%TO.P,U1,P2*%
X140970000Y-88900000D03*
%TD*%
D22*
%TO.N,Net-(1a1-SCL)*%
X118160000Y-86360000D03*
%TO.N,Net-(1a1-GND)*%
X121982500Y-105953000D03*
%TO.N,Net-(U1-SCL)*%
X124460000Y-74422300D03*
%TO.N,Net-(U4-SCL)*%
X125936300Y-76480100D03*
%TO.N,Net-(U4-SDA)*%
X128063700Y-76765500D03*
%TD*%
D23*
%TO.N,Net-(1a1-SCL)*%
X133350000Y-85090000D02*
X132080000Y-86360000D01*
X132080000Y-86360000D02*
X118160000Y-86360000D01*
%TO.N,Net-(1a1-GND)*%
X133350000Y-64770000D02*
X132080000Y-66040000D01*
X119380000Y-104140000D02*
X121193000Y-105953000D01*
X125410500Y-112785500D02*
X140689500Y-112785500D01*
X140689500Y-112785500D02*
X143165000Y-110310000D01*
X122935000Y-110310000D02*
X125410500Y-112785500D01*
X132080000Y-66040000D02*
X115570000Y-66040000D01*
X121193000Y-105953000D02*
X121982500Y-105953000D01*
X115570000Y-66040000D02*
X114300000Y-67310000D01*
%TO.N,Net-(U1-VIN)*%
X126800500Y-109357500D02*
X127753000Y-108405000D01*
X141260000Y-108405000D02*
X140291700Y-108405000D01*
X127753000Y-108405000D02*
X139355000Y-108405000D01*
X121030000Y-108405000D02*
X121982500Y-109357500D01*
X139355000Y-108405000D02*
X140291700Y-108405000D01*
X146100000Y-103960000D02*
X145048300Y-103960000D01*
X119125000Y-108405000D02*
X121030000Y-108405000D01*
X121982500Y-109357500D02*
X126800500Y-109357500D01*
X145048300Y-104616700D02*
X141260000Y-108405000D01*
X145048300Y-103960000D02*
X145048300Y-104616700D01*
%TO.N,Net-(U1-SCL)*%
X133350000Y-69850000D02*
X132080000Y-71120000D01*
X132080000Y-71120000D02*
X127762300Y-71120000D01*
X127762300Y-71120000D02*
X124460000Y-74422300D01*
%TO.N,Net-(U2-IN)*%
X123650700Y-102409300D02*
X121920000Y-104140000D01*
X147548300Y-103960000D02*
X147548300Y-103434200D01*
X147548300Y-103434200D02*
X146523400Y-102409300D01*
X148600000Y-103960000D02*
X147548300Y-103960000D01*
X146523400Y-102409300D02*
X123650700Y-102409300D01*
%TO.N,Net-(U4-SCL)*%
X115850100Y-76480100D02*
X125936300Y-76480100D01*
X114300000Y-74930000D02*
X115850100Y-76480100D01*
%TO.N,Net-(U4-SDA)*%
X117256700Y-75346700D02*
X126644900Y-75346700D01*
X114300000Y-72390000D02*
X117256700Y-75346700D01*
X126644900Y-75346700D02*
X128063700Y-76765500D01*
%TD*%
M02*
